<svg xmlns="http://www.w3.org/2000/svg" xmlns:xlink="http://www.w3.org/1999/xlink" width="500" zoomAndPan="magnify" viewBox="0 0 375 374.999991" height="500" preserveAspectRatio="xMidYMid meet" version="1.0"><defs><clipPath id="374d10f3d2"><path d="M 0 0 L 375 0 L 375 357 L 0 357 Z M 0 0 " clip-rule="nonzero"/></clipPath></defs><path fill="#ffffff" d="M 117.382812 89.492188 C 122.257812 89.492188 126.226562 93.460938 126.226562 98.335938 C 126.226562 101.273438 128.605469 103.652344 131.542969 103.652344 C 134.476562 103.652344 136.855469 101.273438 136.855469 98.335938 C 136.855469 89.441406 130.859375 81.925781 122.695312 79.605469 L 122.695312 74.96875 C 122.695312 72.03125 120.316406 69.652344 117.382812 69.652344 C 114.445312 69.652344 112.066406 72.03125 112.066406 74.96875 L 112.066406 79.605469 C 103.894531 81.921875 97.886719 89.4375 97.886719 98.335938 C 97.886719 109.085938 106.632812 117.832031 117.382812 117.832031 C 122.257812 117.832031 126.226562 121.800781 126.226562 126.675781 C 126.226562 131.554688 122.257812 135.523438 117.382812 135.523438 C 112.492188 135.523438 108.515625 131.554688 108.515625 126.675781 C 108.515625 123.742188 106.136719 121.363281 103.203125 121.363281 C 100.265625 121.363281 97.886719 123.742188 97.886719 126.675781 C 97.886719 135.574219 103.894531 143.089844 112.066406 145.40625 L 112.066406 150.066406 C 112.066406 153.003906 114.445312 155.382812 117.382812 155.382812 C 120.316406 155.382812 122.695312 153.003906 122.695312 150.066406 L 122.695312 145.40625 C 130.859375 143.085938 136.855469 135.570312 136.855469 126.675781 C 136.855469 115.9375 128.121094 107.203125 117.382812 107.203125 C 112.492188 107.203125 108.515625 103.226562 108.515625 98.335938 C 108.515625 93.460938 112.492188 89.492188 117.382812 89.492188 Z M 117.382812 89.492188 " fill-opacity="1" fill-rule="nonzero"/><path fill="#ffffff" d="M 229.730469 240.640625 C 219.015625 240.640625 210.300781 249.367188 210.300781 260.089844 C 210.300781 270.804688 219.015625 279.519531 229.730469 279.519531 C 240.457031 279.519531 249.179688 270.804688 249.179688 260.089844 C 249.179688 249.367188 240.457031 240.640625 229.730469 240.640625 Z M 229.730469 268.894531 C 224.875 268.894531 220.929688 264.945312 220.929688 260.089844 C 220.929688 255.226562 224.875 251.265625 229.730469 251.265625 C 234.59375 251.265625 238.554688 255.226562 238.554688 260.089844 C 238.554688 264.945312 234.59375 268.894531 229.730469 268.894531 Z M 229.730469 268.894531 " fill-opacity="1" fill-rule="nonzero"/><g clip-path="url(#374d10f3d2)"><path fill="#ffffff" d="M 372.863281 49.660156 L 307.726562 1.117188 C 306.113281 -0.0859375 303.964844 -0.273438 302.164062 0.628906 C 300.371094 1.527344 299.234375 3.367188 299.234375 5.375 L 299.234375 28.296875 C 264.582031 34.972656 239.214844 56.160156 225.699219 89.804688 C 223.445312 95.414062 221.679688 100.988281 220.285156 106.34375 L 198.316406 106.34375 C 195.148438 64.460938 160.058594 31.351562 117.382812 31.351562 C 74.691406 31.351562 39.59375 64.460938 36.425781 106.34375 L 33.609375 106.34375 C 15.078125 106.34375 0 121.429688 0 139.976562 L 0 335.511719 C 0 347.472656 9.730469 357.203125 21.6875 357.203125 L 295.425781 357.203125 C 307.386719 357.203125 317.117188 347.472656 317.117188 335.511719 L 317.117188 300.714844 L 324.734375 300.714844 C 327.667969 300.714844 330.046875 298.335938 330.046875 295.402344 L 330.046875 224.757812 C 330.046875 221.824219 327.667969 219.445312 324.734375 219.445312 L 317.117188 219.445312 L 317.117188 184.648438 C 317.117188 172.6875 307.386719 162.957031 295.425781 162.957031 L 262.5 162.957031 L 262.5 130.957031 C 262.5 121.972656 257.621094 113.988281 250.242188 109.6875 C 267.507812 94.53125 288.675781 85.945312 299.234375 82.308594 L 299.234375 102.46875 C 299.234375 104.476562 300.371094 106.316406 302.164062 107.21875 C 303.964844 108.121094 306.113281 107.929688 307.726562 106.730469 L 372.863281 58.183594 C 374.207031 57.179688 375 55.601562 375 53.921875 C 375 52.242188 374.207031 50.664062 372.863281 49.660156 Z M 117.382812 41.976562 C 156.277344 41.976562 187.921875 73.621094 187.921875 112.515625 C 187.921875 131.46875 180.207031 149.734375 166.6875 162.957031 L 151.761719 162.957031 C 167.859375 151.949219 178.449219 133.449219 178.449219 112.515625 C 178.449219 78.84375 151.054688 51.449219 117.382812 51.449219 C 83.695312 51.449219 56.292969 78.84375 56.292969 112.515625 C 56.292969 133.449219 66.886719 151.949219 82.992188 162.957031 L 68.054688 162.957031 C 54.539062 149.734375 46.820312 131.46875 46.820312 112.515625 C 46.820312 73.621094 78.476562 41.976562 117.382812 41.976562 Z M 117.382812 162.957031 C 89.558594 162.957031 66.921875 140.332031 66.921875 112.515625 C 66.921875 84.703125 89.558594 62.078125 117.382812 62.078125 C 145.195312 62.078125 167.824219 84.703125 167.824219 112.515625 C 167.824219 140.332031 145.195312 162.957031 117.382812 162.957031 Z M 33.609375 116.96875 L 36.320312 116.96875 C 37.25 133.753906 43.410156 149.859375 53.78125 162.957031 L 33.609375 162.957031 C 20.9375 162.957031 10.628906 152.648438 10.628906 139.976562 C 10.628906 127.289062 20.9375 116.96875 33.609375 116.96875 Z M 319.421875 290.089844 L 229.730469 290.089844 C 213.1875 290.089844 199.730469 276.632812 199.730469 260.089844 C 199.730469 243.539062 213.1875 230.070312 229.730469 230.070312 L 319.421875 230.070312 Z M 306.488281 184.648438 L 306.488281 219.445312 L 229.730469 219.445312 C 207.328125 219.445312 189.105469 237.679688 189.105469 260.089844 C 189.105469 282.492188 207.328125 300.714844 229.730469 300.714844 L 306.488281 300.714844 L 306.488281 335.511719 C 306.488281 341.613281 301.523438 346.574219 295.425781 346.574219 L 21.6875 346.574219 C 15.589844 346.574219 10.628906 341.613281 10.628906 335.511719 L 10.628906 164.476562 C 10.695312 164.542969 10.769531 164.601562 10.835938 164.664062 C 11.015625 164.828125 11.195312 164.988281 11.378906 165.148438 C 11.589844 165.339844 11.804688 165.527344 12.023438 165.710938 C 12.210938 165.867188 12.398438 166.019531 12.589844 166.171875 C 12.8125 166.351562 13.035156 166.527344 13.261719 166.703125 C 13.457031 166.847656 13.652344 166.992188 13.847656 167.136719 C 14.078125 167.304688 14.3125 167.472656 14.546875 167.632812 C 14.746094 167.773438 14.949219 167.910156 15.152344 168.042969 C 15.390625 168.199219 15.632812 168.355469 15.875 168.507812 C 16.082031 168.636719 16.289062 168.761719 16.496094 168.886719 C 16.746094 169.035156 16.996094 169.175781 17.246094 169.316406 C 17.460938 169.4375 17.671875 169.554688 17.886719 169.667969 C 18.140625 169.804688 18.398438 169.933594 18.660156 170.066406 C 18.875 170.171875 19.09375 170.28125 19.3125 170.386719 C 19.578125 170.507812 19.84375 170.628906 20.109375 170.746094 C 20.332031 170.84375 20.554688 170.941406 20.78125 171.035156 C 21.050781 171.148438 21.324219 171.253906 21.597656 171.359375 C 21.824219 171.445312 22.050781 171.535156 22.28125 171.617188 C 22.558594 171.714844 22.839844 171.808594 23.121094 171.902344 C 23.351562 171.976562 23.582031 172.054688 23.816406 172.125 C 24.105469 172.214844 24.394531 172.292969 24.683594 172.371094 C 24.917969 172.4375 25.148438 172.503906 25.382812 172.5625 C 25.679688 172.636719 25.980469 172.703125 26.277344 172.769531 C 26.511719 172.824219 26.742188 172.878906 26.976562 172.925781 C 27.285156 172.988281 27.601562 173.039062 27.914062 173.09375 C 28.140625 173.132812 28.367188 173.175781 28.597656 173.210938 C 28.929688 173.261719 29.261719 173.296875 29.59375 173.335938 C 29.8125 173.363281 30.027344 173.394531 30.246094 173.417969 C 30.617188 173.453125 30.992188 173.476562 31.363281 173.503906 C 31.550781 173.515625 31.734375 173.535156 31.917969 173.542969 C 32.480469 173.570312 33.042969 173.585938 33.609375 173.585938 L 295.425781 173.585938 C 301.523438 173.585938 306.488281 178.546875 306.488281 184.648438 Z M 251.875 162.957031 L 180.960938 162.957031 C 191.332031 149.859375 197.492188 133.753906 198.421875 116.96875 L 217.921875 116.96875 C 215.394531 130.589844 215.203125 141.515625 215.246094 145.753906 L 215.25 145.957031 C 215.25 148.628906 217.238281 150.886719 219.890625 151.226562 C 220.117188 151.253906 220.34375 151.269531 220.566406 151.269531 C 222.957031 151.269531 225.089844 149.660156 225.707031 147.296875 C 228.710938 135.742188 234.726562 125.921875 242.164062 117.648438 C 247.847656 119.480469 251.875 124.808594 251.875 130.957031 Z M 309.863281 91.878906 L 309.863281 75.074219 C 309.863281 73.429688 309.101562 71.878906 307.800781 70.871094 C 306.503906 69.867188 304.808594 69.519531 303.21875 69.929688 C 302.472656 70.125 284.722656 74.792969 265.039062 86.160156 C 254.050781 92.507812 244.675781 99.703125 237.03125 107.585938 C 236.597656 107.914062 236.214844 108.3125 235.902344 108.761719 C 233.195312 111.640625 230.714844 114.605469 228.472656 117.65625 C 228.699219 116.460938 228.949219 115.242188 229.21875 114.007812 C 229.570312 113.300781 229.773438 112.503906 229.773438 111.65625 C 229.773438 111.628906 229.769531 111.605469 229.769531 111.578125 C 236.617188 82.542969 255.25 45.695312 305.355469 38.023438 C 307.949219 37.625 309.863281 35.394531 309.863281 32.769531 L 309.863281 15.964844 L 360.792969 53.921875 Z M 309.863281 91.878906 " fill-opacity="1" fill-rule="nonzero"/></g></svg>