<svg xmlns="http://www.w3.org/2000/svg" xmlns:xlink="http://www.w3.org/1999/xlink" width="500" zoomAndPan="magnify" viewBox="0 0 375 374.999991" height="500" preserveAspectRatio="xMidYMid meet" version="1.0"><path fill="#ffffff" d="M 6.347656 296.894531 L 48.457031 296.894531 L 48.457031 358.96875 L 6.347656 358.96875 Z M 6.347656 296.894531 " fill-opacity="1" fill-rule="nonzero"/><path fill="#ffffff" d="M 90.792969 253.121094 L 132.90625 253.121094 L 132.90625 358.96875 L 90.792969 358.96875 Z M 90.792969 253.121094 " fill-opacity="1" fill-rule="nonzero"/><path fill="#ffffff" d="M 175.246094 196.058594 L 217.351562 196.058594 L 217.351562 358.96875 L 175.246094 358.96875 Z M 175.246094 196.058594 " fill-opacity="1" fill-rule="nonzero"/><path fill="#ffffff" d="M 277.308594 286.851562 C 277.5625 286.335938 277.867188 285.847656 278.136719 285.347656 C 278.6875 284.308594 279.230469 283.269531 279.847656 282.273438 C 280.199219 281.699219 280.597656 281.160156 280.980469 280.597656 C 281.574219 279.710938 282.160156 278.824219 282.804688 277.96875 C 283.238281 277.390625 283.710938 276.855469 284.164062 276.300781 C 284.808594 275.511719 285.453125 274.71875 286.144531 273.96875 C 286.648438 273.417969 287.183594 272.910156 287.707031 272.378906 C 288.410156 271.675781 289.109375 270.96875 289.847656 270.296875 C 290.410156 269.789062 291.007812 269.308594 291.597656 268.828125 C 292.351562 268.203125 293.105469 267.578125 293.882812 266.996094 C 294.507812 266.527344 295.160156 266.101562 295.800781 265.660156 C 296.597656 265.117188 297.394531 264.589844 298.214844 264.085938 C 298.902344 263.671875 299.601562 263.285156 300.304688 262.90625 C 300.808594 262.636719 301.28125 262.324219 301.789062 262.066406 L 301.789062 134.898438 L 259.699219 134.898438 L 259.699219 358.988281 L 300.046875 358.988281 C 299.6875 358.792969 299.355469 358.546875 299.011719 358.34375 C 298.3125 357.933594 297.625 357.503906 296.949219 357.0625 C 296.140625 356.542969 295.355469 356 294.574219 355.4375 C 293.929688 354.96875 293.292969 354.492188 292.667969 353.992188 C 291.910156 353.386719 291.175781 352.765625 290.453125 352.128906 C 289.863281 351.605469 289.277344 351.082031 288.710938 350.539062 C 287.996094 349.855469 287.320312 349.148438 286.648438 348.429688 C 286.125 347.875 285.597656 347.320312 285.101562 346.742188 C 284.4375 345.976562 283.820312 345.167969 283.195312 344.371094 C 282.75 343.785156 282.289062 343.214844 281.867188 342.621094 C 281.25 341.746094 280.679688 340.835938 280.117188 339.925781 C 279.757812 339.351562 279.378906 338.796875 279.039062 338.210938 C 278.441406 337.167969 277.914062 336.097656 277.386719 335.019531 C 277.140625 334.523438 276.871094 334.046875 276.640625 333.546875 C 275.914062 331.945312 275.261719 330.3125 274.699219 328.644531 C 273.140625 324.167969 272.21875 319.679688 271.972656 315.332031 C 271.84375 314.050781 271.714844 312.566406 271.714844 311.011719 C 271.714844 304.359375 272.902344 297.84375 275.25 291.660156 C 275.867188 290.019531 276.5625 288.417969 277.332031 286.851562 Z M 277.308594 286.851562 " fill-opacity="1" fill-rule="nonzero"/><path fill="#ffffff" d="M 334.117188 263.6875 C 325.070312 261.976562 315.578125 263.3125 306.691406 267.234375 C 306.652344 267.253906 306.617188 267.265625 306.578125 267.289062 C 295.105469 272.503906 285.988281 282.253906 281.574219 294.039062 C 280.03125 298.113281 279.058594 302.347656 278.671875 306.664062 C 278.542969 308.101562 278.476562 309.554688 278.476562 311.011719 C 278.476562 312.335938 278.597656 313.609375 278.714844 314.816406 C 278.929688 318.660156 279.730469 322.535156 281.09375 326.445312 C 285.195312 338.570312 294.1875 348.722656 305.777344 354.335938 C 306.015625 354.453125 306.273438 354.628906 306.523438 354.8125 L 306.585938 354.675781 C 312.851562 357.539062 319.535156 358.988281 326.460938 358.988281 C 352.949219 358.988281 374.5 337.464844 374.5 311.011719 C 374.5 287.21875 357.519531 267.316406 334.117188 263.6875 Z M 342.4375 298.414062 C 342.4375 300.285156 340.917969 301.804688 339.046875 301.804688 C 337.175781 301.804688 335.65625 300.285156 335.65625 298.414062 L 335.65625 289.238281 L 317.304688 289.238281 L 317.304688 307.582031 L 339.046875 307.582031 C 340.917969 307.582031 342.4375 309.101562 342.4375 310.972656 L 342.4375 336.101562 C 342.4375 337.976562 340.917969 339.492188 339.046875 339.492188 L 329.871094 339.492188 L 329.871094 347.699219 C 329.871094 349.570312 328.351562 351.089844 326.480469 351.089844 C 324.609375 351.089844 323.089844 349.570312 323.089844 347.699219 L 323.089844 339.492188 L 313.910156 339.492188 C 312.035156 339.492188 310.519531 337.976562 310.519531 336.101562 L 310.519531 323.539062 C 310.519531 321.664062 312.035156 320.148438 313.910156 320.148438 C 315.78125 320.148438 317.296875 321.664062 317.296875 323.539062 L 317.296875 332.710938 L 335.648438 332.710938 L 335.648438 314.363281 L 313.910156 314.363281 C 312.035156 314.363281 310.519531 312.84375 310.519531 310.972656 L 310.519531 285.847656 C 310.519531 283.976562 312.035156 282.457031 313.910156 282.457031 L 323.089844 282.457031 L 323.089844 274.246094 C 323.089844 272.375 324.609375 270.855469 326.480469 270.855469 C 328.351562 270.855469 329.871094 272.375 329.871094 274.246094 L 329.871094 282.457031 L 339.046875 282.457031 C 340.917969 282.457031 342.4375 283.976562 342.4375 285.847656 Z M 342.4375 298.414062 " fill-opacity="1" fill-rule="nonzero"/><path fill="#ffffff" d="M 107.609375 200.945312 C 106.335938 202.222656 104.085938 202.222656 102.816406 200.945312 L 84.820312 182.941406 C 83.808594 181.871094 82.316406 181.273438 80.785156 181.273438 C 79.175781 181.273438 77.753906 181.851562 76.660156 182.941406 L 1.519531 258.085938 C 0.425781 259.175781 -0.175781 260.628906 -0.175781 262.167969 C -0.175781 263.707031 0.425781 265.152344 1.519531 266.25 C 3.785156 268.523438 7.535156 268.5 9.617188 266.3125 L 78.390625 197.632812 C 79.027344 196.992188 79.890625 196.640625 80.792969 196.640625 C 81.691406 196.640625 82.554688 197.007812 83.191406 197.636719 L 101.101562 215.640625 C 103.214844 217.765625 107.246094 217.757812 109.183594 215.703125 L 264.675781 60.304688 C 266 58.984375 268.140625 58.984375 269.464844 60.304688 L 284.695312 75.46875 L 300.664062 16.070312 L 241.1875 32.035156 L 256.417969 47.265625 C 257.738281 48.585938 257.738281 50.738281 256.417969 52.058594 L 107.609375 200.960938 Z M 107.609375 200.945312 " fill-opacity="1" fill-rule="nonzero"/></svg>