<svg xmlns="http://www.w3.org/2000/svg" xmlns:xlink="http://www.w3.org/1999/xlink" width="500" zoomAndPan="magnify" viewBox="0 0 375 374.999991" height="500" preserveAspectRatio="xMidYMid meet" version="1.0"><defs><clipPath id="7f1e24c2eb"><path d="M 15 9 L 351 9 L 351 369.75 L 15 369.75 Z M 15 9 " clip-rule="nonzero"/></clipPath></defs><g clip-path="url(#7f1e24c2eb)"><path fill="#ffffff" d="M 183 183.804688 C 184.667969 183.804688 186.332031 183.757812 187.996094 183.660156 C 189.65625 183.5625 191.316406 183.421875 192.972656 183.230469 C 194.625 183.039062 196.273438 182.800781 197.917969 182.515625 C 199.558594 182.226562 201.191406 181.894531 202.8125 181.515625 C 204.433594 181.136719 206.046875 180.710938 207.644531 180.242188 C 209.242188 179.769531 210.824219 179.253906 212.394531 178.691406 C 213.960938 178.128906 215.511719 177.523438 217.046875 176.871094 C 218.578125 176.21875 220.09375 175.527344 221.585938 174.789062 C 223.082031 174.050781 224.554688 173.269531 226.003906 172.449219 C 227.453125 171.628906 228.875 170.765625 230.277344 169.859375 C 231.675781 168.957031 233.046875 168.015625 234.394531 167.03125 C 235.742188 166.050781 237.058594 165.03125 238.34375 163.972656 C 239.632812 162.914062 240.886719 161.820312 242.113281 160.691406 C 243.335938 159.5625 244.527344 158.398438 245.6875 157.203125 C 246.84375 156.003906 247.96875 154.773438 249.054688 153.511719 C 250.144531 152.25 251.195312 150.957031 252.207031 149.632812 C 253.222656 148.3125 254.195312 146.960938 255.132812 145.585938 C 256.070312 144.207031 256.964844 142.800781 257.820312 141.371094 C 258.675781 139.941406 259.492188 138.492188 260.261719 137.015625 C 261.035156 135.539062 261.765625 134.039062 262.453125 132.523438 C 263.140625 131.003906 263.78125 129.46875 264.382812 127.914062 C 264.980469 126.359375 265.535156 124.789062 266.042969 123.203125 C 266.550781 121.617188 267.015625 120.015625 267.433594 118.402344 C 267.847656 116.789062 268.21875 115.167969 268.542969 113.53125 C 268.867188 111.898438 269.144531 110.253906 269.375 108.605469 C 269.605469 106.957031 269.789062 105.300781 269.925781 103.640625 C 270.058594 101.980469 270.148438 100.316406 270.1875 98.648438 C 270.226562 96.984375 270.21875 95.320312 270.164062 93.652344 C 270.109375 91.988281 270.007812 90.328125 269.855469 88.667969 C 269.703125 87.007812 269.507812 85.355469 269.261719 83.707031 C 269.015625 82.058594 268.722656 80.417969 268.386719 78.789062 C 268.046875 77.15625 267.660156 75.535156 267.226562 73.925781 C 266.796875 72.316406 266.320312 70.722656 265.796875 69.140625 C 265.273438 67.558594 264.703125 65.992188 264.089844 64.445312 C 263.476562 62.894531 262.820312 61.363281 262.121094 59.851562 C 261.417969 58.339844 260.675781 56.851562 259.890625 55.382812 C 259.101562 53.914062 258.277344 52.46875 257.40625 51.046875 C 256.539062 49.625 255.628906 48.230469 254.679688 46.859375 C 253.730469 45.488281 252.742188 44.148438 251.71875 42.835938 C 250.691406 41.523438 249.628906 40.238281 248.53125 38.988281 C 247.433594 37.734375 246.296875 36.515625 245.128906 35.328125 C 243.960938 34.140625 242.757812 32.988281 241.523438 31.871094 C 240.289062 30.753906 239.023438 29.671875 237.722656 28.625 C 236.425781 27.578125 235.101562 26.570312 233.746094 25.601562 C 232.390625 24.632812 231.011719 23.703125 229.601562 22.8125 C 228.195312 21.921875 226.761719 21.070312 225.304688 20.261719 C 223.847656 19.453125 222.371094 18.6875 220.871094 17.964844 C 219.367188 17.238281 217.847656 16.558594 216.308594 15.921875 C 214.769531 15.285156 213.214844 14.691406 211.640625 14.144531 C 210.066406 13.597656 208.476562 13.09375 206.875 12.636719 C 205.273438 12.183594 203.660156 11.769531 202.035156 11.40625 C 200.40625 11.042969 198.773438 10.726562 197.128906 10.453125 C 195.484375 10.183594 193.835938 9.960938 192.175781 9.785156 C 190.519531 9.609375 188.859375 9.480469 187.195312 9.398438 C 185.53125 9.320312 183.867188 9.285156 182.199219 9.300781 C 180.535156 9.3125 178.871094 9.375 177.207031 9.484375 C 175.546875 9.597656 173.886719 9.753906 172.234375 9.957031 C 170.582031 10.164062 168.933594 10.414062 167.296875 10.714844 C 165.65625 11.011719 164.027344 11.359375 162.40625 11.75 C 160.789062 12.144531 159.183594 12.582031 157.585938 13.066406 C 155.992188 13.550781 154.414062 14.082031 152.851562 14.65625 C 151.289062 15.230469 149.742188 15.847656 148.210938 16.511719 C 146.683594 17.175781 145.175781 17.882812 143.6875 18.632812 C 142.199219 19.382812 140.734375 20.175781 139.292969 21.007812 C 137.851562 21.84375 136.433594 22.714844 135.039062 23.632812 C 133.648438 24.546875 132.285156 25.5 130.945312 26.492188 C 129.609375 27.488281 128.300781 28.515625 127.019531 29.585938 C 125.742188 30.652344 124.496094 31.757812 123.28125 32.898438 C 122.0625 34.035156 120.882812 35.210938 119.734375 36.417969 C 118.585938 37.625 117.472656 38.863281 116.394531 40.132812 C 115.320312 41.40625 114.277344 42.707031 113.277344 44.035156 C 112.273438 45.367188 111.308594 46.726562 110.382812 48.109375 C 109.460938 49.496094 108.574219 50.90625 107.730469 52.34375 C 106.886719 53.78125 106.085938 55.242188 105.324219 56.722656 C 104.5625 58.207031 103.84375 59.707031 103.171875 61.230469 C 102.496094 62.753906 101.867188 64.296875 101.28125 65.855469 C 100.695312 67.417969 100.152344 68.992188 99.65625 70.582031 C 99.160156 72.171875 98.710938 73.777344 98.308594 75.390625 C 97.902344 77.007812 97.546875 78.636719 97.234375 80.273438 C 96.925781 81.910156 96.660156 83.554688 96.445312 85.207031 C 96.226562 86.855469 96.058594 88.515625 95.9375 90.175781 C 95.816406 91.835938 95.742188 93.5 95.714844 95.167969 C 95.6875 96.832031 95.710938 98.5 95.777344 100.164062 C 95.847656 101.828125 95.964844 103.488281 96.128906 105.148438 C 96.292969 106.804688 96.503906 108.457031 96.761719 110.101562 C 97.019531 111.75 97.328125 113.386719 97.679688 115.015625 C 98.03125 116.644531 98.429688 118.257812 98.875 119.863281 C 99.320312 121.472656 99.8125 123.0625 100.347656 124.640625 C 100.882812 126.21875 101.464844 127.777344 102.089844 129.320312 C 102.71875 130.867188 103.386719 132.390625 104.097656 133.898438 C 104.8125 135.402344 105.566406 136.886719 106.367188 138.347656 C 107.164062 139.8125 108.003906 141.25 108.882812 142.664062 C 109.765625 144.078125 110.683594 145.46875 111.644531 146.828125 C 112.605469 148.191406 113.601562 149.523438 114.640625 150.828125 C 115.675781 152.132812 116.75 153.40625 117.859375 154.648438 C 118.96875 155.894531 120.113281 157.101562 121.289062 158.28125 C 123.308594 160.304688 125.425781 162.222656 127.632812 164.035156 C 129.839844 165.847656 132.132812 167.550781 134.511719 169.136719 C 136.886719 170.726562 139.335938 172.191406 141.855469 173.539062 C 144.378906 174.886719 146.957031 176.105469 149.597656 177.199219 C 152.238281 178.292969 154.929688 179.25 157.664062 180.078125 C 160.398438 180.90625 163.167969 181.597656 165.972656 182.152344 C 168.777344 182.707031 171.601562 183.121094 174.445312 183.398438 C 177.289062 183.675781 180.140625 183.808594 183 183.804688 Z M 128.996094 42.550781 C 129.878906 41.667969 130.785156 40.808594 131.710938 39.96875 C 132.636719 39.132812 133.582031 38.316406 134.546875 37.523438 C 135.515625 36.730469 136.5 35.964844 137.503906 35.21875 C 138.503906 34.476562 139.527344 33.757812 140.566406 33.066406 C 141.605469 32.371094 142.660156 31.703125 143.730469 31.0625 C 144.804688 30.421875 145.890625 29.804688 146.992188 29.21875 C 148.09375 28.628906 149.207031 28.066406 150.339844 27.535156 C 151.46875 27 152.609375 26.496094 153.761719 26.015625 C 154.917969 25.539062 156.082031 25.089844 157.257812 24.671875 C 158.433594 24.25 159.621094 23.859375 160.816406 23.496094 C 162.011719 23.132812 163.214844 22.800781 164.425781 22.5 C 165.636719 22.195312 166.855469 21.921875 168.082031 21.679688 C 169.308594 21.4375 170.539062 21.222656 171.773438 21.039062 C 173.007812 20.859375 174.25 20.703125 175.492188 20.582031 C 176.734375 20.460938 177.980469 20.371094 179.226562 20.308594 C 180.476562 20.246094 181.722656 20.21875 182.972656 20.21875 C 184.222656 20.21875 185.46875 20.25 186.71875 20.3125 C 187.964844 20.371094 189.210938 20.464844 190.453125 20.585938 C 191.695312 20.710938 192.933594 20.863281 194.171875 21.046875 C 195.40625 21.230469 196.636719 21.445312 197.859375 21.6875 C 199.085938 21.933594 200.304688 22.207031 201.515625 22.511719 C 202.726562 22.8125 203.929688 23.148438 205.125 23.511719 C 206.320312 23.875 207.507812 24.265625 208.683594 24.6875 C 209.859375 25.105469 211.023438 25.558594 212.175781 26.035156 C 213.332031 26.511719 214.472656 27.019531 215.601562 27.554688 C 216.730469 28.089844 217.847656 28.648438 218.945312 29.238281 C 220.046875 29.828125 221.136719 30.445312 222.207031 31.085938 C 223.277344 31.726562 224.332031 32.398438 225.371094 33.089844 C 226.410156 33.785156 227.429688 34.503906 228.433594 35.25 C 229.4375 35.992188 230.421875 36.761719 231.386719 37.554688 C 232.351562 38.347656 233.296875 39.160156 234.222656 40 C 235.148438 40.839844 236.050781 41.699219 236.933594 42.585938 C 237.816406 43.46875 238.679688 44.371094 239.515625 45.296875 C 240.355469 46.222656 241.171875 47.167969 241.964844 48.132812 C 242.753906 49.101562 243.523438 50.085938 244.269531 51.085938 C 245.011719 52.089844 245.730469 53.113281 246.425781 54.152344 C 247.117188 55.1875 247.785156 56.246094 248.429688 57.316406 C 249.070312 58.386719 249.683594 59.472656 250.273438 60.574219 C 250.863281 61.675781 251.425781 62.792969 251.957031 63.921875 C 252.492188 65.050781 252.996094 66.191406 253.476562 67.347656 C 253.953125 68.5 254.402344 69.664062 254.824219 70.839844 C 255.246094 72.015625 255.636719 73.203125 256 74.398438 C 256.359375 75.59375 256.695312 76.796875 256.996094 78.007812 C 257.300781 79.21875 257.574219 80.4375 257.816406 81.664062 C 258.0625 82.890625 258.273438 84.117188 258.457031 85.355469 C 258.640625 86.589844 258.792969 87.828125 258.917969 89.074219 C 259.039062 90.316406 259.132812 91.5625 259.191406 92.808594 C 259.253906 94.054688 259.285156 95.304688 259.285156 96.554688 C 259.285156 97.800781 259.253906 99.050781 259.191406 100.296875 C 259.132812 101.546875 259.039062 102.789062 258.917969 104.035156 C 258.792969 105.277344 258.640625 106.515625 258.457031 107.75 C 258.273438 108.988281 258.0625 110.21875 257.816406 111.441406 C 257.574219 112.667969 257.300781 113.886719 256.996094 115.097656 C 256.695312 116.308594 256.359375 117.511719 256 118.707031 C 255.636719 119.902344 255.246094 121.089844 254.824219 122.265625 C 254.402344 123.441406 253.953125 124.605469 253.476562 125.761719 C 252.996094 126.914062 252.492188 128.054688 251.957031 129.183594 C 251.425781 130.3125 250.863281 131.429688 250.273438 132.53125 C 249.683594 133.632812 249.070312 134.71875 248.429688 135.789062 C 247.785156 136.863281 247.117188 137.917969 246.425781 138.957031 C 245.730469 139.996094 245.011719 141.015625 244.269531 142.019531 C 243.523438 143.023438 242.753906 144.007812 241.964844 144.972656 C 241.171875 145.9375 240.355469 146.882812 239.515625 147.808594 C 238.679688 148.734375 237.816406 149.640625 236.933594 150.523438 C 236.050781 151.40625 235.148438 152.265625 234.222656 153.105469 C 233.296875 153.945312 232.351562 154.761719 231.386719 155.554688 C 230.421875 156.34375 229.4375 157.113281 228.433594 157.859375 C 227.429688 158.601562 226.410156 159.320312 225.371094 160.015625 C 224.332031 160.710938 223.277344 161.378906 222.207031 162.019531 C 221.136719 162.664062 220.046875 163.277344 218.945312 163.867188 C 217.847656 164.457031 216.730469 165.019531 215.601562 165.550781 C 214.472656 166.085938 213.332031 166.59375 212.175781 167.070312 C 211.023438 167.550781 209.859375 168 208.683594 168.421875 C 207.507812 168.839844 206.320312 169.234375 205.125 169.597656 C 203.929688 169.957031 202.726562 170.292969 201.515625 170.597656 C 200.304688 170.898438 199.085938 171.171875 197.859375 171.417969 C 196.636719 171.660156 195.40625 171.875 194.171875 172.058594 C 192.933594 172.242188 191.695312 172.394531 190.453125 172.519531 C 189.210938 172.640625 187.964844 172.734375 186.71875 172.796875 C 185.46875 172.855469 184.222656 172.886719 182.972656 172.886719 C 181.722656 172.890625 180.476562 172.859375 179.226562 172.796875 C 177.980469 172.738281 176.734375 172.644531 175.492188 172.523438 C 174.25 172.402344 173.007812 172.25 171.773438 172.066406 C 170.539062 171.882812 169.308594 171.671875 168.082031 171.425781 C 166.855469 171.183594 165.636719 170.910156 164.425781 170.605469 C 163.214844 170.304688 162.011719 169.972656 160.816406 169.609375 C 159.621094 169.246094 158.433594 168.855469 157.257812 168.4375 C 156.082031 168.015625 154.917969 167.566406 153.761719 167.089844 C 152.609375 166.609375 151.46875 166.105469 150.339844 165.570312 C 149.207031 165.039062 148.09375 164.476562 146.992188 163.890625 C 145.890625 163.300781 144.804688 162.6875 143.730469 162.042969 C 142.660156 161.402344 141.605469 160.734375 140.566406 160.042969 C 139.527344 159.347656 138.503906 158.628906 137.503906 157.886719 C 136.5 157.140625 135.515625 156.375 134.546875 155.582031 C 133.582031 154.789062 132.636719 153.976562 131.710938 153.136719 C 130.785156 152.296875 129.878906 151.4375 128.996094 150.554688 C 128.113281 149.671875 127.253906 148.765625 126.414062 147.839844 C 125.578125 146.910156 124.761719 145.964844 123.972656 144.996094 C 123.179688 144.03125 122.410156 143.046875 121.667969 142.042969 C 120.925781 141.039062 120.207031 140.015625 119.511719 138.976562 C 118.820312 137.9375 118.152344 136.878906 117.511719 135.808594 C 116.871094 134.734375 116.253906 133.648438 115.667969 132.546875 C 115.078125 131.445312 114.519531 130.328125 113.984375 129.199219 C 113.449219 128.070312 112.945312 126.925781 112.46875 125.773438 C 111.992188 124.617188 111.542969 123.453125 111.121094 122.273438 C 110.699219 121.097656 110.308594 119.910156 109.949219 118.714844 C 109.585938 117.519531 109.253906 116.316406 108.949219 115.105469 C 108.648438 113.890625 108.375 112.671875 108.128906 111.449219 C 107.886719 110.222656 107.671875 108.992188 107.488281 107.753906 C 107.308594 106.519531 107.15625 105.28125 107.03125 104.035156 C 106.910156 102.792969 106.816406 101.546875 106.757812 100.300781 C 106.695312 99.050781 106.664062 97.800781 106.664062 96.554688 C 106.664062 95.304688 106.695312 94.054688 106.757812 92.808594 C 106.816406 91.558594 106.910156 90.3125 107.03125 89.070312 C 107.15625 87.828125 107.308594 86.585938 107.488281 85.351562 C 107.671875 84.113281 107.886719 82.882812 108.128906 81.660156 C 108.375 80.433594 108.648438 79.214844 108.949219 78.003906 C 109.253906 76.789062 109.585938 75.585938 109.949219 74.390625 C 110.308594 73.195312 110.699219 72.007812 111.121094 70.832031 C 111.542969 69.65625 111.992188 68.488281 112.46875 67.335938 C 112.945312 66.179688 113.449219 65.039062 113.984375 63.90625 C 114.519531 62.777344 115.078125 61.660156 115.667969 60.558594 C 116.253906 59.457031 116.871094 58.371094 117.511719 57.296875 C 118.152344 56.226562 118.820312 55.167969 119.511719 54.128906 C 120.207031 53.089844 120.925781 52.070312 121.667969 51.066406 C 122.410156 50.058594 123.179688 49.074219 123.972656 48.109375 C 124.761719 47.140625 125.578125 46.195312 126.414062 45.269531 C 127.253906 44.339844 128.113281 43.4375 128.996094 42.550781 Z M 198.972656 117.988281 C 198.972656 117.464844 198.945312 116.945312 198.894531 116.425781 C 198.84375 115.902344 198.765625 115.386719 198.664062 114.875 C 198.558594 114.359375 198.433594 113.855469 198.28125 113.355469 C 198.128906 112.855469 197.953125 112.363281 197.753906 111.878906 C 197.550781 111.394531 197.328125 110.921875 197.082031 110.460938 C 196.835938 110 196.566406 109.554688 196.277344 109.117188 C 195.984375 108.683594 195.675781 108.265625 195.34375 107.859375 C 195.011719 107.457031 194.660156 107.066406 194.289062 106.699219 C 193.917969 106.328125 193.53125 105.976562 193.128906 105.644531 C 192.722656 105.3125 192.304688 105.003906 191.871094 104.710938 C 191.433594 104.421875 190.988281 104.152344 190.527344 103.90625 C 190.066406 103.660156 189.59375 103.433594 189.109375 103.234375 C 188.628906 103.035156 188.136719 102.859375 187.636719 102.707031 C 187.132812 102.554688 186.628906 102.425781 186.113281 102.324219 C 185.601562 102.21875 185.085938 102.144531 184.566406 102.089844 C 184.042969 102.039062 183.523438 102.011719 183 102.011719 C 182.175781 102.011719 181.355469 101.976562 180.535156 101.902344 C 179.714844 101.824219 178.898438 101.714844 178.089844 101.5625 C 177.277344 101.414062 176.476562 101.226562 175.683594 101.003906 C 174.890625 100.78125 174.109375 100.519531 173.339844 100.226562 C 172.570312 99.929688 171.816406 99.597656 171.078125 99.234375 C 170.339844 98.871094 169.621094 98.472656 168.917969 98.042969 C 168.214844 97.609375 167.535156 97.148438 166.875 96.65625 C 166.214844 96.160156 165.578125 95.640625 164.96875 95.085938 C 164.355469 94.535156 163.769531 93.957031 163.214844 93.351562 C 162.65625 92.746094 162.125 92.117188 161.625 91.460938 C 161.125 90.808594 160.652344 90.132812 160.214844 89.433594 C 159.777344 88.738281 159.371094 88.019531 159 87.285156 C 158.625 86.550781 158.289062 85.800781 157.984375 85.035156 C 157.679688 84.269531 157.410156 83.492188 157.179688 82.703125 C 156.945312 81.910156 156.75 81.113281 156.59375 80.304688 C 156.433594 79.496094 156.3125 78.679688 156.226562 77.863281 C 156.144531 77.042969 156.097656 76.222656 156.089844 75.398438 C 156.082031 74.574219 156.109375 73.75 156.175781 72.929688 C 156.242188 72.109375 156.347656 71.292969 156.492188 70.480469 C 156.632812 69.667969 156.8125 68.867188 157.027344 68.070312 C 157.242188 67.277344 157.496094 66.492188 157.78125 65.722656 C 158.070312 64.949219 158.394531 64.191406 158.75 63.449219 C 159.109375 62.707031 159.5 61.984375 159.921875 61.277344 C 160.347656 60.570312 160.800781 59.886719 161.289062 59.222656 C 161.773438 58.554688 162.292969 57.914062 162.835938 57.296875 C 163.382812 56.679688 163.957031 56.089844 164.554688 55.527344 C 165.15625 54.960938 165.78125 54.425781 166.429688 53.917969 C 167.078125 53.410156 167.75 52.9375 168.445312 52.492188 C 169.136719 52.046875 169.847656 51.632812 170.578125 51.253906 C 171.308594 50.871094 172.058594 50.527344 172.820312 50.214844 C 173.582031 49.90625 174.359375 49.628906 175.144531 49.390625 C 175.933594 49.148438 176.730469 48.945312 177.539062 48.777344 L 177.539062 36.597656 C 177.539062 36.238281 177.570312 35.882812 177.640625 35.53125 C 177.710938 35.175781 177.8125 34.835938 177.949219 34.503906 C 178.089844 34.171875 178.257812 33.855469 178.453125 33.558594 C 178.652344 33.257812 178.878906 32.980469 179.132812 32.726562 C 179.386719 32.472656 179.664062 32.246094 179.960938 32.046875 C 180.261719 31.847656 180.574219 31.679688 180.90625 31.542969 C 181.238281 31.402344 181.582031 31.300781 181.933594 31.230469 C 182.285156 31.160156 182.640625 31.125 183 31.125 C 183.359375 31.125 183.714844 31.160156 184.066406 31.230469 C 184.417969 31.300781 184.761719 31.402344 185.09375 31.542969 C 185.425781 31.679688 185.738281 31.847656 186.039062 32.046875 C 186.335938 32.246094 186.613281 32.472656 186.867188 32.726562 C 187.121094 32.980469 187.347656 33.257812 187.546875 33.558594 C 187.742188 33.855469 187.910156 34.171875 188.050781 34.503906 C 188.1875 34.835938 188.289062 35.175781 188.359375 35.53125 C 188.429688 35.882812 188.460938 36.238281 188.460938 36.597656 L 188.460938 48.777344 C 189.964844 49.09375 191.429688 49.53125 192.855469 50.09375 C 194.285156 50.65625 195.652344 51.339844 196.964844 52.136719 C 198.273438 52.933594 199.507812 53.835938 200.664062 54.847656 C 201.820312 55.855469 202.886719 56.953125 203.855469 58.144531 C 204.824219 59.335938 205.683594 60.597656 206.4375 61.9375 C 207.1875 63.273438 207.824219 64.664062 208.335938 66.109375 C 208.851562 67.554688 209.242188 69.035156 209.503906 70.546875 C 209.765625 72.058594 209.898438 73.582031 209.898438 75.117188 C 209.890625 75.46875 209.847656 75.816406 209.769531 76.164062 C 209.691406 76.507812 209.582031 76.839844 209.441406 77.164062 C 209.300781 77.484375 209.128906 77.792969 208.929688 78.082031 C 208.726562 78.371094 208.5 78.640625 208.25 78.886719 C 207.996094 79.132812 207.722656 79.351562 207.425781 79.542969 C 207.132812 79.738281 206.820312 79.898438 206.492188 80.03125 C 206.167969 80.164062 205.832031 80.265625 205.484375 80.332031 C 205.136719 80.402344 204.789062 80.433594 204.4375 80.433594 C 204.082031 80.433594 203.734375 80.402344 203.386719 80.332031 C 203.042969 80.265625 202.707031 80.164062 202.378906 80.03125 C 202.050781 79.898438 201.742188 79.738281 201.445312 79.542969 C 201.152344 79.351562 200.875 79.132812 200.625 78.886719 C 200.371094 78.640625 200.144531 78.371094 199.945312 78.082031 C 199.742188 77.792969 199.570312 77.484375 199.429688 77.164062 C 199.289062 76.839844 199.179688 76.507812 199.101562 76.164062 C 199.023438 75.816406 198.980469 75.46875 198.972656 75.117188 C 198.972656 74.59375 198.945312 74.070312 198.894531 73.550781 C 198.84375 73.03125 198.765625 72.515625 198.664062 72 C 198.5625 71.488281 198.4375 70.980469 198.285156 70.480469 C 198.132812 69.980469 197.957031 69.488281 197.757812 69.003906 C 197.554688 68.523438 197.332031 68.050781 197.085938 67.585938 C 196.839844 67.125 196.570312 66.679688 196.28125 66.242188 C 195.988281 65.808594 195.679688 65.390625 195.347656 64.984375 C 195.015625 64.578125 194.664062 64.191406 194.292969 63.824219 C 193.925781 63.453125 193.535156 63.101562 193.132812 62.769531 C 192.726562 62.4375 192.308594 62.128906 191.875 61.835938 C 191.4375 61.546875 190.992188 61.277344 190.527344 61.03125 C 190.066406 60.785156 189.59375 60.5625 189.113281 60.359375 C 188.628906 60.160156 188.136719 59.984375 187.636719 59.832031 C 187.136719 59.679688 186.628906 59.554688 186.117188 59.453125 C 185.601562 59.351562 185.085938 59.273438 184.566406 59.222656 C 184.046875 59.171875 183.523438 59.144531 183 59.144531 C 182.476562 59.144531 181.953125 59.171875 181.433594 59.222656 C 180.914062 59.273438 180.398438 59.351562 179.882812 59.453125 C 179.371094 59.554688 178.863281 59.679688 178.363281 59.832031 C 177.863281 59.984375 177.371094 60.160156 176.886719 60.359375 C 176.40625 60.5625 175.933594 60.785156 175.46875 61.03125 C 175.007812 61.277344 174.5625 61.546875 174.125 61.835938 C 173.691406 62.128906 173.273438 62.4375 172.867188 62.769531 C 172.464844 63.101562 172.074219 63.453125 171.707031 63.824219 C 171.335938 64.191406 170.984375 64.578125 170.652344 64.984375 C 170.320312 65.390625 170.011719 65.808594 169.71875 66.242188 C 169.429688 66.679688 169.160156 67.125 168.914062 67.585938 C 168.667969 68.050781 168.445312 68.523438 168.242188 69.003906 C 168.042969 69.488281 167.867188 69.980469 167.714844 70.480469 C 167.5625 70.980469 167.4375 71.488281 167.335938 72 C 167.234375 72.515625 167.15625 73.03125 167.105469 73.550781 C 167.054688 74.070312 167.027344 74.59375 167.027344 75.117188 C 167.027344 75.640625 167.054688 76.160156 167.105469 76.683594 C 167.15625 77.203125 167.234375 77.71875 167.335938 78.234375 C 167.4375 78.746094 167.5625 79.253906 167.714844 79.753906 C 167.867188 80.253906 168.042969 80.746094 168.242188 81.230469 C 168.445312 81.710938 168.667969 82.183594 168.914062 82.644531 C 169.160156 83.109375 169.429688 83.554688 169.71875 83.992188 C 170.011719 84.425781 170.320312 84.84375 170.652344 85.25 C 170.984375 85.652344 171.335938 86.042969 171.707031 86.410156 C 172.074219 86.78125 172.464844 87.132812 172.867188 87.464844 C 173.273438 87.796875 173.691406 88.105469 174.125 88.398438 C 174.5625 88.6875 175.007812 88.957031 175.46875 89.203125 C 175.933594 89.449219 176.40625 89.671875 176.886719 89.875 C 177.371094 90.074219 177.863281 90.25 178.363281 90.402344 C 178.863281 90.554688 179.371094 90.679688 179.882812 90.78125 C 180.398438 90.882812 180.914062 90.960938 181.433594 91.011719 C 181.953125 91.0625 182.476562 91.089844 183 91.089844 C 183.824219 91.089844 184.644531 91.128906 185.464844 91.203125 C 186.285156 91.277344 187.101562 91.390625 187.910156 91.542969 C 188.71875 91.691406 189.519531 91.878906 190.3125 92.101562 C 191.105469 92.328125 191.886719 92.585938 192.65625 92.882812 C 193.421875 93.179688 194.175781 93.507812 194.914062 93.875 C 195.652344 94.238281 196.375 94.636719 197.074219 95.066406 C 197.777344 95.5 198.457031 95.960938 199.117188 96.453125 C 199.777344 96.949219 200.410156 97.46875 201.023438 98.023438 C 201.632812 98.574219 202.21875 99.152344 202.777344 99.757812 C 203.335938 100.363281 203.863281 100.992188 204.363281 101.648438 C 204.863281 102.300781 205.332031 102.976562 205.773438 103.675781 C 206.210938 104.371094 206.613281 105.089844 206.988281 105.824219 C 207.359375 106.558594 207.699219 107.308594 208 108.074219 C 208.304688 108.835938 208.574219 109.617188 208.804688 110.40625 C 209.039062 111.195312 209.234375 111.996094 209.390625 112.804688 C 209.550781 113.609375 209.671875 114.425781 209.757812 115.242188 C 209.839844 116.0625 209.886719 116.882812 209.894531 117.707031 C 209.902344 118.53125 209.875 119.351562 209.808594 120.175781 C 209.742188 120.996094 209.636719 121.8125 209.496094 122.621094 C 209.351562 123.433594 209.171875 124.238281 208.957031 125.03125 C 208.742188 125.824219 208.492188 126.609375 208.203125 127.382812 C 207.914062 128.152344 207.59375 128.910156 207.238281 129.652344 C 206.878906 130.394531 206.488281 131.117188 206.066406 131.824219 C 205.640625 132.53125 205.1875 133.214844 204.699219 133.878906 C 204.214844 134.542969 203.699219 135.183594 203.152344 135.800781 C 202.609375 136.417969 202.035156 137.011719 201.4375 137.574219 C 200.835938 138.140625 200.210938 138.675781 199.5625 139.183594 C 198.914062 139.6875 198.242188 140.164062 197.550781 140.609375 C 196.859375 141.058594 196.148438 141.46875 195.417969 141.851562 C 194.6875 142.230469 193.941406 142.574219 193.175781 142.886719 C 192.414062 143.199219 191.640625 143.476562 190.851562 143.714844 C 190.066406 143.957031 189.269531 144.160156 188.460938 144.328125 L 188.460938 156.507812 C 188.460938 156.867188 188.429688 157.222656 188.359375 157.578125 C 188.289062 157.929688 188.1875 158.269531 188.050781 158.601562 C 187.910156 158.933594 187.742188 159.25 187.542969 159.546875 C 187.347656 159.847656 187.121094 160.125 186.867188 160.378906 C 186.613281 160.632812 186.335938 160.859375 186.039062 161.058594 C 185.738281 161.257812 185.425781 161.425781 185.09375 161.566406 C 184.761719 161.703125 184.417969 161.804688 184.066406 161.875 C 183.714844 161.945312 183.359375 161.980469 183 161.980469 C 182.640625 161.980469 182.285156 161.945312 181.933594 161.875 C 181.582031 161.804688 181.238281 161.703125 180.90625 161.566406 C 180.574219 161.425781 180.261719 161.257812 179.960938 161.058594 C 179.664062 160.859375 179.386719 160.632812 179.132812 160.378906 C 178.878906 160.125 178.652344 159.847656 178.453125 159.546875 C 178.257812 159.25 178.089844 158.933594 177.949219 158.601562 C 177.8125 158.269531 177.710938 157.929688 177.640625 157.578125 C 177.570312 157.222656 177.539062 156.867188 177.539062 156.507812 L 177.539062 144.328125 C 176.035156 144.015625 174.570312 143.574219 173.144531 143.011719 C 171.71875 142.445312 170.347656 141.765625 169.039062 140.96875 C 167.726562 140.171875 166.492188 139.265625 165.335938 138.257812 C 164.179688 137.25 163.117188 136.152344 162.148438 134.960938 C 161.179688 133.769531 160.320312 132.507812 159.566406 131.167969 C 158.8125 129.832031 158.179688 128.441406 157.664062 126.996094 C 157.148438 125.550781 156.761719 124.070312 156.496094 122.558594 C 156.234375 121.046875 156.101562 119.523438 156.101562 117.988281 C 156.109375 117.636719 156.152344 117.289062 156.230469 116.945312 C 156.308594 116.601562 156.417969 116.265625 156.558594 115.941406 C 156.699219 115.621094 156.871094 115.3125 157.070312 115.023438 C 157.273438 114.734375 157.5 114.464844 157.75 114.21875 C 158.003906 113.972656 158.277344 113.753906 158.574219 113.5625 C 158.867188 113.367188 159.179688 113.207031 159.507812 113.074219 C 159.832031 112.941406 160.167969 112.839844 160.515625 112.773438 C 160.863281 112.707031 161.210938 112.671875 161.5625 112.671875 C 161.917969 112.671875 162.265625 112.707031 162.613281 112.773438 C 162.957031 112.839844 163.292969 112.941406 163.621094 113.074219 C 163.949219 113.207031 164.257812 113.367188 164.554688 113.5625 C 164.847656 113.753906 165.125 113.972656 165.375 114.21875 C 165.628906 114.464844 165.855469 114.734375 166.054688 115.023438 C 166.257812 115.3125 166.429688 115.621094 166.570312 115.941406 C 166.710938 116.265625 166.820312 116.601562 166.898438 116.945312 C 166.976562 117.289062 167.019531 117.636719 167.027344 117.988281 C 167.027344 118.511719 167.054688 119.035156 167.105469 119.554688 C 167.15625 120.074219 167.234375 120.59375 167.335938 121.105469 C 167.4375 121.617188 167.5625 122.125 167.714844 122.625 C 167.867188 123.125 168.042969 123.617188 168.242188 124.101562 C 168.445312 124.585938 168.667969 125.058594 168.914062 125.519531 C 169.160156 125.980469 169.429688 126.429688 169.71875 126.863281 C 170.011719 127.296875 170.320312 127.71875 170.652344 128.121094 C 170.984375 128.527344 171.335938 128.914062 171.707031 129.285156 C 172.074219 129.652344 172.464844 130.003906 172.867188 130.335938 C 173.273438 130.667969 173.691406 130.980469 174.125 131.269531 C 174.5625 131.558594 175.007812 131.828125 175.46875 132.074219 C 175.933594 132.320312 176.40625 132.546875 176.886719 132.746094 C 177.371094 132.945312 177.863281 133.121094 178.363281 133.273438 C 178.863281 133.425781 179.371094 133.550781 179.882812 133.65625 C 180.398438 133.757812 180.914062 133.832031 181.433594 133.882812 C 181.953125 133.9375 182.476562 133.960938 183 133.960938 C 183.523438 133.960938 184.046875 133.9375 184.566406 133.882812 C 185.085938 133.832031 185.601562 133.757812 186.117188 133.65625 C 186.628906 133.550781 187.136719 133.425781 187.636719 133.273438 C 188.136719 133.121094 188.628906 132.945312 189.113281 132.746094 C 189.59375 132.546875 190.066406 132.320312 190.53125 132.074219 C 190.992188 131.828125 191.4375 131.558594 191.875 131.269531 C 192.308594 130.980469 192.726562 130.667969 193.132812 130.335938 C 193.539062 130.003906 193.925781 129.652344 194.292969 129.28125 C 194.664062 128.914062 195.015625 128.527344 195.347656 128.121094 C 195.679688 127.71875 195.988281 127.296875 196.28125 126.863281 C 196.570312 126.429688 196.839844 125.980469 197.085938 125.519531 C 197.332031 125.058594 197.554688 124.585938 197.757812 124.101562 C 197.957031 123.617188 198.132812 123.125 198.285156 122.625 C 198.4375 122.125 198.5625 121.617188 198.664062 121.105469 C 198.765625 120.59375 198.84375 120.074219 198.894531 119.554688 C 198.945312 119.035156 198.972656 118.511719 198.972656 117.988281 Z M 349.460938 204.542969 C 349.9375 203.933594 350.269531 203.257812 350.460938 202.507812 C 350.652344 201.757812 350.679688 201 350.550781 200.238281 L 330.597656 84.347656 C 330.476562 83.550781 330.320312 82.761719 330.128906 81.976562 C 329.9375 81.191406 329.707031 80.417969 329.441406 79.65625 C 329.179688 78.894531 328.878906 78.144531 328.546875 77.410156 C 328.210938 76.675781 327.84375 75.957031 327.445312 75.257812 C 327.042969 74.554688 326.613281 73.875 326.148438 73.214844 C 325.6875 72.554688 325.195312 71.914062 324.671875 71.300781 C 324.148438 70.683594 323.597656 70.09375 323.023438 69.53125 C 322.445312 68.964844 321.84375 68.429688 321.21875 67.921875 C 320.589844 67.410156 319.941406 66.933594 319.269531 66.484375 C 318.601562 66.035156 317.910156 65.617188 317.199219 65.234375 C 316.492188 64.847656 315.765625 64.496094 315.023438 64.179688 C 314.28125 63.859375 313.527344 63.578125 312.757812 63.332031 C 311.992188 63.082031 311.210938 62.871094 310.425781 62.695312 C 309.636719 62.519531 308.84375 62.378906 308.042969 62.277344 C 307.242188 62.175781 306.4375 62.109375 305.632812 62.082031 C 304.824219 62.054688 304.019531 62.0625 303.214844 62.109375 C 301.589844 62.207031 299.992188 62.464844 298.421875 62.890625 C 296.847656 63.3125 295.335938 63.894531 293.886719 64.628906 C 292.433594 65.359375 291.070312 66.234375 289.796875 67.25 C 288.523438 68.261719 287.367188 69.394531 286.328125 70.644531 C 285.210938 71.960938 284.238281 73.375 283.410156 74.886719 C 282.582031 76.402344 281.910156 77.980469 281.402344 79.628906 C 280.890625 81.277344 280.550781 82.960938 280.382812 84.679688 C 280.214844 86.394531 280.21875 88.109375 280.398438 89.828125 L 287.816406 158.835938 C 285.582031 159.335938 283.464844 160.144531 281.46875 161.265625 C 279.46875 162.382812 277.671875 163.765625 276.082031 165.414062 L 234.90625 207.96875 C 215.988281 215.25 203.027344 227.105469 196.375 243.230469 C 190.363281 257.8125 189.5625 276.089844 193.921875 297.5625 L 183 297.679688 L 172.078125 297.546875 C 176.449219 276.058594 175.644531 257.796875 169.625 243.214844 C 162.972656 227.105469 150.011719 215.25 131.09375 207.953125 L 89.90625 165.429688 C 88.316406 163.78125 86.519531 162.398438 84.519531 161.28125 C 82.523438 160.160156 80.40625 159.351562 78.171875 158.855469 L 85.589844 89.84375 C 85.769531 88.128906 85.773438 86.410156 85.605469 84.695312 C 85.433594 82.976562 85.097656 81.292969 84.585938 79.644531 C 84.078125 77.996094 83.40625 76.417969 82.578125 74.90625 C 81.75 73.390625 80.777344 71.976562 79.660156 70.660156 C 78.621094 69.410156 77.464844 68.277344 76.195312 67.261719 C 74.921875 66.246094 73.5625 65.371094 72.109375 64.636719 C 70.660156 63.902344 69.148438 63.320312 67.578125 62.894531 C 66.007812 62.46875 64.410156 62.207031 62.785156 62.109375 C 61.980469 62.0625 61.175781 62.054688 60.371094 62.082031 C 59.5625 62.109375 58.761719 62.175781 57.960938 62.277344 C 57.160156 62.378906 56.367188 62.519531 55.578125 62.695312 C 54.792969 62.871094 54.015625 63.082031 53.246094 63.332031 C 52.480469 63.578125 51.726562 63.859375 50.984375 64.179688 C 50.242188 64.496094 49.515625 64.847656 48.808594 65.230469 C 48.097656 65.617188 47.410156 66.03125 46.738281 66.480469 C 46.066406 66.929688 45.417969 67.40625 44.792969 67.917969 C 44.167969 68.425781 43.566406 68.960938 42.988281 69.523438 C 42.414062 70.089844 41.863281 70.679688 41.339844 71.292969 C 40.820312 71.90625 40.324219 72.546875 39.863281 73.207031 C 39.398438 73.867188 38.96875 74.546875 38.566406 75.246094 C 38.167969 75.949219 37.800781 76.664062 37.46875 77.398438 C 37.132812 78.132812 36.835938 78.882812 36.570312 79.644531 C 36.304688 80.40625 36.078125 81.179688 35.882812 81.960938 C 35.691406 82.746094 35.535156 83.535156 35.414062 84.332031 L 15.449219 200.230469 C 15.320312 200.992188 15.347656 201.75 15.539062 202.5 C 15.730469 203.246094 16.0625 203.925781 16.539062 204.535156 L 77.816406 282.535156 L 77.644531 296.390625 L 68.027344 296.269531 L 67.960938 296.269531 C 67.605469 296.269531 67.25 296.304688 66.902344 296.371094 C 66.554688 296.441406 66.214844 296.542969 65.886719 296.679688 C 65.554688 296.816406 65.242188 296.980469 64.945312 297.175781 C 64.648438 297.375 64.375 297.597656 64.121094 297.847656 C 63.867188 298.097656 63.640625 298.371094 63.441406 298.664062 C 63.242188 298.957031 63.074219 299.269531 62.933594 299.597656 C 62.792969 299.925781 62.6875 300.261719 62.613281 300.609375 C 62.542969 300.957031 62.503906 301.3125 62.5 301.667969 L 61.75 362.835938 C 61.746094 363.195312 61.773438 363.550781 61.839844 363.902344 C 61.90625 364.253906 62.003906 364.597656 62.140625 364.929688 C 62.273438 365.261719 62.4375 365.578125 62.632812 365.878906 C 62.828125 366.179688 63.050781 366.460938 63.300781 366.714844 C 63.550781 366.972656 63.824219 367.203125 64.121094 367.40625 C 64.414062 367.609375 64.726562 367.78125 65.058594 367.921875 C 65.386719 368.0625 65.726562 368.167969 66.078125 368.242188 C 66.429688 368.316406 66.785156 368.355469 67.144531 368.359375 L 182.199219 369.773438 L 182.265625 369.773438 C 182.765625 369.695312 183.265625 369.695312 183.765625 369.773438 L 183.800781 369.773438 L 298.855469 368.359375 C 299.214844 368.355469 299.570312 368.316406 299.921875 368.242188 C 300.273438 368.167969 300.613281 368.0625 300.941406 367.917969 C 301.269531 367.777344 301.582031 367.605469 301.878906 367.402344 C 302.175781 367.199219 302.449219 366.972656 302.699219 366.714844 C 302.949219 366.457031 303.171875 366.179688 303.367188 365.878906 C 303.5625 365.578125 303.726562 365.261719 303.859375 364.929688 C 303.992188 364.597656 304.09375 364.253906 304.160156 363.902344 C 304.222656 363.550781 304.253906 363.195312 304.25 362.835938 L 303.5 301.667969 C 303.492188 300.941406 303.34375 300.246094 303.058594 299.582031 C 302.773438 298.917969 302.371094 298.332031 301.855469 297.824219 C 301.332031 297.320312 300.738281 296.933594 300.066406 296.664062 C 299.394531 296.398438 298.695312 296.265625 297.972656 296.269531 L 288.355469 296.390625 L 288.183594 282.535156 Z M 87.597656 277.292969 L 26.632812 199.695312 L 46.167969 86.199219 C 46.292969 85.257812 46.507812 84.332031 46.804688 83.429688 C 47.105469 82.523438 47.484375 81.65625 47.949219 80.824219 C 48.410156 79.992188 48.945312 79.210938 49.554688 78.476562 C 50.164062 77.746094 50.835938 77.078125 51.570312 76.472656 C 52.304688 75.867188 53.089844 75.335938 53.925781 74.878906 C 54.761719 74.417969 55.628906 74.042969 56.535156 73.75 C 57.441406 73.453125 58.367188 73.246094 59.3125 73.128906 C 60.257812 73.007812 61.203125 72.976562 62.152344 73.035156 C 63.941406 73.148438 65.632812 73.613281 67.230469 74.429688 C 68.824219 75.246094 70.191406 76.347656 71.332031 77.730469 C 72.617188 79.246094 73.558594 80.957031 74.148438 82.855469 C 74.738281 84.757812 74.933594 86.695312 74.726562 88.675781 L 67.195312 158.917969 C 65.058594 159.417969 63.03125 160.191406 61.105469 161.242188 C 59.179688 162.292969 57.429688 163.578125 55.855469 165.105469 C 55.296875 165.652344 54.765625 166.226562 54.261719 166.828125 C 53.757812 167.429688 53.289062 168.050781 52.84375 168.699219 C 52.402344 169.34375 51.996094 170.011719 51.617188 170.699219 C 51.242188 171.382812 50.902344 172.085938 50.59375 172.808594 C 50.285156 173.527344 50.015625 174.261719 49.777344 175.007812 C 49.542969 175.753906 49.34375 176.511719 49.183594 177.277344 C 49.023438 178.042969 48.898438 178.816406 48.8125 179.59375 C 48.726562 180.371094 48.679688 181.152344 48.671875 181.9375 C 48.660156 182.71875 48.691406 183.5 48.757812 184.28125 C 48.824219 185.058594 48.929688 185.835938 49.074219 186.605469 C 49.214844 187.375 49.398438 188.136719 49.613281 188.886719 C 49.832031 189.640625 50.085938 190.378906 50.375 191.105469 C 50.667969 191.835938 50.992188 192.546875 51.351562 193.242188 C 51.710938 193.9375 52.105469 194.613281 52.53125 195.269531 C 52.957031 195.925781 53.414062 196.558594 53.902344 197.171875 C 54.390625 197.785156 54.90625 198.371094 55.453125 198.933594 L 74.867188 218.832031 C 75.121094 219.070312 75.398438 219.28125 75.691406 219.46875 C 75.984375 219.65625 76.296875 219.8125 76.621094 219.9375 C 76.945312 220.066406 77.277344 220.160156 77.621094 220.222656 C 77.964844 220.285156 78.308594 220.316406 78.65625 220.3125 C 79.003906 220.308594 79.351562 220.273438 79.691406 220.203125 C 80.035156 220.136719 80.363281 220.035156 80.6875 219.902344 C 81.007812 219.769531 81.316406 219.605469 81.605469 219.414062 C 81.898438 219.222656 82.167969 219.007812 82.417969 218.765625 C 82.667969 218.519531 82.890625 218.257812 83.089844 217.96875 C 83.289062 217.683594 83.460938 217.382812 83.601562 217.0625 C 83.742188 216.746094 83.851562 216.417969 83.929688 216.078125 C 84.007812 215.738281 84.054688 215.394531 84.066406 215.042969 C 84.078125 214.695312 84.058594 214.351562 84.003906 214.007812 C 83.949219 213.660156 83.863281 213.324219 83.746094 213 C 83.628906 212.671875 83.480469 212.355469 83.300781 212.058594 C 83.121094 211.757812 82.917969 211.476562 82.6875 211.21875 L 63.273438 191.320312 C 62.679688 190.707031 62.152344 190.042969 61.6875 189.324219 C 61.226562 188.609375 60.835938 187.855469 60.523438 187.0625 C 60.207031 186.269531 59.972656 185.457031 59.816406 184.617188 C 59.664062 183.78125 59.589844 182.933594 59.601562 182.082031 C 59.613281 181.230469 59.703125 180.386719 59.878906 179.550781 C 60.054688 178.71875 60.3125 177.910156 60.644531 177.125 C 60.980469 176.339844 61.386719 175.597656 61.867188 174.890625 C 62.347656 174.1875 62.890625 173.535156 63.5 172.9375 C 64.691406 171.796875 66.042969 170.902344 67.5625 170.261719 C 69.082031 169.617188 70.667969 169.269531 72.316406 169.210938 L 72.402344 169.210938 C 72.589844 169.210938 72.777344 169.210938 72.960938 169.210938 C 74.671875 169.21875 76.3125 169.554688 77.886719 170.21875 C 79.464844 170.886719 80.847656 171.828125 82.046875 173.050781 L 124.09375 216.445312 C 124.667969 217.042969 125.34375 217.484375 126.125 217.769531 C 158.617188 229.792969 170.035156 255.875 160.960938 297.410156 L 88.570312 296.527344 L 88.765625 280.746094 C 88.78125 279.457031 88.394531 278.304688 87.597656 277.292969 Z M 176.851562 358.785156 L 72.722656 357.503906 L 73.339844 307.261719 L 82.957031 307.378906 L 165.199219 308.390625 L 165.246094 308.390625 L 177.453125 308.539062 Z M 293.277344 357.503906 L 189.148438 358.785156 L 188.53125 308.546875 L 200.738281 308.398438 L 200.785156 308.398438 L 283.023438 307.390625 L 292.640625 307.269531 Z M 205.039062 297.398438 C 195.964844 255.863281 207.382812 229.789062 239.875 217.757812 C 240.65625 217.472656 241.332031 217.027344 241.90625 216.429688 L 283.941406 173.027344 C 285.140625 171.804688 286.523438 170.863281 288.101562 170.195312 C 289.675781 169.53125 291.316406 169.195312 293.027344 169.1875 L 293.742188 169.1875 C 295.390625 169.246094 296.972656 169.59375 298.492188 170.238281 C 300.011719 170.878906 301.367188 171.769531 302.554688 172.914062 C 303.164062 173.511719 303.707031 174.164062 304.1875 174.867188 C 304.667969 175.570312 305.074219 176.316406 305.410156 177.101562 C 305.746094 177.882812 306 178.695312 306.175781 179.527344 C 306.351562 180.363281 306.445312 181.207031 306.453125 182.058594 C 306.464844 182.910156 306.394531 183.753906 306.238281 184.59375 C 306.082031 185.433594 305.847656 186.246094 305.535156 187.039062 C 305.21875 187.832031 304.828125 188.585938 304.367188 189.300781 C 303.90625 190.019531 303.378906 190.683594 302.785156 191.296875 L 283.371094 211.195312 C 283.136719 211.453125 282.933594 211.734375 282.753906 212.035156 C 282.578125 212.332031 282.429688 212.648438 282.308594 212.972656 C 282.191406 213.300781 282.105469 213.636719 282.050781 213.980469 C 282 214.328125 281.976562 214.671875 281.988281 215.019531 C 282.003906 215.367188 282.046875 215.710938 282.125 216.050781 C 282.203125 216.390625 282.3125 216.722656 282.453125 217.039062 C 282.597656 217.359375 282.765625 217.660156 282.964844 217.945312 C 283.164062 218.230469 283.386719 218.496094 283.636719 218.738281 C 283.886719 218.984375 284.15625 219.199219 284.449219 219.390625 C 284.738281 219.582031 285.046875 219.746094 285.367188 219.878906 C 285.691406 220.011719 286.023438 220.109375 286.363281 220.179688 C 286.707031 220.25 287.050781 220.285156 287.398438 220.289062 C 287.746094 220.292969 288.09375 220.261719 288.4375 220.199219 C 288.777344 220.136719 289.113281 220.039062 289.4375 219.914062 C 289.761719 219.789062 290.070312 219.628906 290.363281 219.445312 C 290.660156 219.257812 290.933594 219.046875 291.1875 218.808594 L 310.601562 198.914062 C 311.148438 198.351562 311.664062 197.765625 312.152344 197.152344 C 312.640625 196.539062 313.097656 195.90625 313.523438 195.25 C 313.953125 194.589844 314.34375 193.914062 314.703125 193.21875 C 315.066406 192.523438 315.390625 191.8125 315.679688 191.085938 C 315.96875 190.359375 316.222656 189.617188 316.441406 188.867188 C 316.660156 188.113281 316.839844 187.351562 316.984375 186.582031 C 317.125 185.8125 317.230469 185.039062 317.300781 184.257812 C 317.367188 183.476562 317.394531 182.695312 317.386719 181.914062 C 317.378906 181.128906 317.328125 180.351562 317.242188 179.570312 C 317.15625 178.792969 317.035156 178.019531 316.871094 177.253906 C 316.710938 176.488281 316.511719 175.730469 316.277344 174.984375 C 316.042969 174.238281 315.769531 173.503906 315.464844 172.785156 C 315.15625 172.066406 314.8125 171.359375 314.4375 170.675781 C 314.0625 169.988281 313.652344 169.320312 313.210938 168.675781 C 312.769531 168.027344 312.296875 167.402344 311.792969 166.804688 C 311.292969 166.203125 310.761719 165.628906 310.203125 165.082031 C 308.625 163.554688 306.875 162.265625 304.953125 161.214844 C 303.027344 160.167969 300.996094 159.390625 298.859375 158.894531 L 291.273438 88.675781 C 291.066406 86.695312 291.261719 84.757812 291.851562 82.855469 C 292.441406 80.957031 293.382812 79.246094 294.667969 77.730469 C 295.808594 76.347656 297.175781 75.246094 298.769531 74.429688 C 300.367188 73.613281 302.058594 73.148438 303.847656 73.035156 C 304.796875 72.976562 305.746094 73.003906 306.6875 73.125 C 307.632812 73.246094 308.558594 73.453125 309.464844 73.746094 C 310.371094 74.039062 311.242188 74.414062 312.078125 74.871094 C 312.914062 75.332031 313.699219 75.863281 314.433594 76.46875 C 315.167969 77.074219 315.839844 77.742188 316.449219 78.472656 C 317.058594 79.207031 317.59375 79.988281 318.054688 80.820312 C 318.519531 81.65625 318.898438 82.523438 319.195312 83.425781 C 319.496094 84.332031 319.707031 85.257812 319.832031 86.199219 L 339.367188 199.695312 L 278.402344 277.292969 C 277.609375 278.300781 277.222656 279.445312 277.234375 280.730469 L 277.429688 296.507812 Z M 205.039062 297.398438 " fill-opacity="1" fill-rule="nonzero"/></g></svg>